<svg width="73" height="73" viewBox="0 0 73 73" fill="none" xmlns="http://www.w3.org/2000/svg">
<g clip-path="url(#clip0_2385_279569)">
<rect width="73" height="73" fill="#0F0F0F"/>
<line x1="12" y1="0.5" x2="61" y2="0.499996" stroke="#2E2E2E"/>
<line x1="12" y1="72.5" x2="61" y2="72.5" stroke="#2E2E2E"/>
<line x1="0.5" y1="12" x2="0.500002" y2="61" stroke="#2E2E2E"/>
<line x1="72.5" y1="12" x2="72.5" y2="61" stroke="#2E2E2E"/>
<rect width="4" height="4" fill="#707070"/>
<rect y="69" width="4" height="4" fill="#707070"/>
<rect x="69" y="69" width="4" height="4" fill="#707070"/>
<rect x="69" width="4" height="4" fill="#707070"/>
<path d="M22.2503 32H50.7503M33.5003 23L30.5003 32L36.5003 49.25L42.5003 32L39.5003 23M37.4221 48.8938L50.8601 32.7682C51.0878 32.4949 51.2017 32.3583 51.2452 32.2057C51.2836 32.0713 51.2836 31.9287 51.2452 31.7943C51.2017 31.6417 51.0878 31.5051 50.8601 31.2318L44.3601 23.4318C44.2278 23.2731 44.1617 23.1937 44.0806 23.1367C44.0088 23.0861 43.9287 23.0486 43.8439 23.0258C43.7481 23 43.6448 23 43.4382 23H29.5623C29.3557 23 29.2524 23 29.1567 23.0258C29.0719 23.0486 28.9917 23.0861 28.9199 23.1367C28.8389 23.1937 28.7727 23.2731 28.6405 23.4318L22.1405 31.2318C21.9127 31.5051 21.7989 31.6417 21.7553 31.7942C21.717 31.9287 21.717 32.0713 21.7553 32.2057C21.7989 32.3583 21.9127 32.4949 22.1405 32.7682L35.5784 48.8938C35.895 49.2737 36.0533 49.4636 36.2428 49.5329C36.4091 49.5937 36.5915 49.5937 36.7578 49.5329C36.9473 49.4636 37.1056 49.2737 37.4221 48.8938Z" stroke="#505050" stroke-width="1.5" stroke-linecap="round" stroke-linejoin="round"/>
</g>
<defs>
<clipPath id="clip0_2385_279569">
<rect width="73" height="73" fill="white"/>
</clipPath>
</defs>
</svg>
