<svg width="180" height="28" viewBox="0 0 180 28" fill="none" xmlns="http://www.w3.org/2000/svg">
<path d="M23.1773 5.89502H5.00391V8.10948H23.1773V5.89502Z" fill="#F7F7F7"/>
<path d="M21.3804 9.82812H6.79883V12.0426H21.3804V9.82812Z" fill="#ECECEC"/>
<path d="M15.1949 13.7622H12.9805V23.4866H15.1949V13.7622Z" fill="#F7F7F7"/>
<path d="M10.7691 13.7622H8.55469V23.4866H10.7691V13.7622Z" fill="#F7F7F7"/>
<path d="M19.6285 13.7622H17.4141V23.4866H19.6285V13.7622Z" fill="#F7F7F7"/>
<path fill-rule="evenodd" clip-rule="evenodd" d="M58.7929 14.8772C58.7929 10.6219 61.5071 7.90771 65.5987 7.90771C69.6904 7.90771 72.4864 10.6628 72.4864 14.7408C72.4864 18.8189 69.7586 21.7103 65.6533 21.7103C61.548 21.7103 58.7793 18.9689 58.7793 14.8772H58.7929ZM65.6124 10.0217C62.8437 10.0217 61.0843 11.7812 61.0843 14.6863C61.0843 17.5913 62.8437 19.6235 65.6533 19.6235C68.4629 19.6235 70.2223 17.8641 70.2223 14.959C70.2223 12.0539 68.422 10.0217 65.6124 10.0217ZM50.4183 10.1854C47.7041 10.1854 45.6447 11.7675 45.6447 14.7136C45.6447 17.6596 47.7723 19.4599 50.6365 19.4599C52.7232 19.4599 54.619 18.2597 54.9873 16.0911L55.2326 16.2003C55.7618 16.4362 56.2849 16.6694 56.8285 16.8821C56.4467 20.4555 53.2279 21.6967 50.3501 21.6967C46.2175 21.6967 43.2715 18.737 43.2715 14.7136C43.2715 10.6901 46.272 8.01684 50.4592 8.01684C53.5416 8.01684 56.2421 9.39437 56.8831 12.3677L54.9327 13.1178C54.3326 11.0856 52.2186 10.1718 50.4183 10.1718V10.1854ZM75.623 21.2742H86.766V19.1465H77.8053V8.39902H75.623V21.2742ZM87.5566 14.8772C87.5566 10.6219 90.2708 7.90771 94.3761 7.90771C98.4814 7.90771 101.264 10.6628 101.264 14.7408C101.264 18.8189 98.5359 21.7103 94.4306 21.7103C90.3253 21.7103 87.5566 18.9689 87.5566 14.8772ZM94.3761 10.0217C91.6074 10.0217 89.848 11.7812 89.848 14.6863C89.848 17.5913 91.6074 19.6235 94.417 19.6235C97.2266 19.6235 98.986 17.8641 98.986 14.959C98.986 12.0539 97.1857 10.0217 94.3761 10.0217ZM110.074 21.751C112.924 21.751 116.498 20.7281 116.498 17.2093L116.511 17.2229C116.511 14.1025 113.08 13.8288 110.143 13.5945C107.944 13.4192 106.023 13.2659 106.023 11.9583C106.023 10.6899 108.055 9.98063 109.855 9.98063C111.765 9.98063 113.852 10.5944 114.397 12.5311L116.211 11.8082C115.775 8.91679 112.706 7.96207 109.855 7.96207C107.005 7.96207 103.445 9.14865 103.445 12.1629C103.445 15.313 106.842 15.5142 109.799 15.6894C112.079 15.8244 114.097 15.9439 114.097 17.3866C114.097 19.1596 111.356 19.4733 109.842 19.4733C108.164 19.4733 106.132 19.1869 105.314 17.032L103.377 17.9594C104.113 21.4373 107.905 21.751 110.074 21.751ZM131.652 17.2093C131.652 20.7281 128.065 21.751 125.228 21.751C123.059 21.751 119.268 21.4373 118.531 17.9594L120.468 17.032C121.286 19.1869 123.319 19.4733 124.996 19.4733C126.51 19.4733 129.251 19.1596 129.251 17.3866C129.251 15.9439 127.233 15.8244 124.954 15.6894C121.996 15.5142 118.599 15.313 118.599 12.1629C118.599 9.14865 122.159 7.96207 125.01 7.96207C127.86 7.96207 130.929 8.91679 131.365 11.8082L129.551 12.5311C129.006 10.5944 126.919 9.98063 125.01 9.98063C123.209 9.98063 121.177 10.6899 121.177 11.9583C121.177 13.2659 123.099 13.4192 125.297 13.5945C128.234 13.8288 131.666 14.1025 131.666 17.2229L131.652 17.2093ZM134.666 21.2742H146.709V19.1465H136.835V15.764H144.732V13.5545H136.835V10.5676H146.341V8.39902H134.666V21.2742ZM149.178 16.5142V8.39902H151.36V16.0095C151.36 18.2736 152.669 19.5284 155.424 19.5284C158.179 19.5284 159.489 18.2736 159.489 16.0095V8.39902H161.671V16.5142C161.671 19.6238 159.325 21.7379 155.424 21.7379C151.524 21.7379 149.178 19.6238 149.178 16.5142ZM172.71 17.4282L177.231 8.39902H180V21.2742H177.818V12.2861C177.374 13.1182 176.45 14.9528 175.526 16.7874C174.602 18.6217 173.678 20.4559 173.235 21.2878H172.185L167.616 12.2861V21.2605H165.434V8.39902H168.189C168.653 9.29197 169.634 11.2662 170.588 13.1871C171.451 14.9241 172.292 16.6174 172.71 17.4282Z" fill="#F7F7F7"/>
</svg>
