<svg width="40" height="40" viewBox="0 0 40 40" fill="none" xmlns="http://www.w3.org/2000/svg">
<path d="M29.3367 23.6242L27.0312 14.5312C26.9706 14.2945 26.8422 14.0806 26.6618 13.9158C26.4814 13.7509 26.2568 13.6423 26.0156 13.6031L23.1984 13.1406C22.8878 13.0906 22.5698 13.158 22.3061 13.3295C22.0425 13.5011 21.852 13.7646 21.7719 14.0687L21.7554 14.1351C21.7448 14.1773 21.7431 14.2213 21.7505 14.2641C21.7578 14.307 21.774 14.3479 21.7981 14.3842C21.8221 14.4204 21.8535 14.4512 21.8901 14.4747C21.9268 14.4981 21.9679 14.5137 22.0109 14.5203C22.6574 14.6152 23.2951 14.762 23.9179 14.9593C24.0737 15.0063 24.2057 15.1108 24.2872 15.2515C24.3687 15.3922 24.3937 15.5587 24.357 15.7172C24.3359 15.7997 24.2982 15.8771 24.2461 15.9446C24.194 16.012 24.1287 16.0681 24.0541 16.1094C23.9795 16.1506 23.8973 16.1762 23.8125 16.1845C23.7277 16.1929 23.6421 16.1838 23.5609 16.1578C21.2498 15.449 18.7798 15.4463 16.4672 16.15C16.3107 16.2026 16.1399 16.1929 15.9903 16.1229C15.8408 16.053 15.7239 15.9281 15.664 15.7742C15.6356 15.6952 15.6233 15.6113 15.628 15.5275C15.6326 15.4437 15.6541 15.3617 15.6912 15.2864C15.7282 15.2111 15.78 15.144 15.8435 15.0892C15.9071 15.0343 15.981 14.9928 16.0609 14.9672C16.6915 14.7663 17.3374 14.6168 17.9922 14.5203C18.0352 14.5137 18.0763 14.4981 18.113 14.4747C18.1496 14.4512 18.181 14.4204 18.205 14.3842C18.2291 14.3479 18.2453 14.307 18.2526 14.2641C18.26 14.2213 18.2583 14.1773 18.2476 14.1351L18.2312 14.0687C18.151 13.7643 17.9603 13.5006 17.6963 13.3292C17.4323 13.1577 17.1138 13.0908 16.8031 13.1414L13.9844 13.6039C13.7432 13.643 13.5188 13.7515 13.3384 13.9162C13.158 14.0809 13.0295 14.2946 12.9687 14.5312L10.6633 23.6242C10.591 23.91 10.6224 24.2122 10.752 24.477C10.8817 24.7418 11.101 24.952 11.3711 25.0703L16.6054 27.3914C16.7628 27.4613 16.9329 27.4984 17.1051 27.5002C17.2773 27.5021 17.4481 27.4687 17.607 27.4021C17.7658 27.3355 17.9094 27.2371 18.0288 27.113C18.1483 26.9889 18.2411 26.8417 18.3015 26.6804L18.5742 25.9422C18.5904 25.8979 18.5965 25.8506 18.5919 25.8037C18.5872 25.7568 18.5721 25.7116 18.5475 25.6714C18.5229 25.6312 18.4896 25.5971 18.45 25.5716C18.4104 25.5461 18.3655 25.5299 18.3187 25.5242C17.5598 25.4323 16.811 25.2701 16.082 25.0398C15.9269 24.9927 15.7955 24.8885 15.7142 24.7483C15.6328 24.6082 15.6077 24.4424 15.6437 24.2843C15.6646 24.2015 15.7023 24.1239 15.7543 24.0562C15.8064 23.9885 15.8718 23.9322 15.9465 23.8908C16.0211 23.8494 16.1035 23.8237 16.1885 23.8153C16.2735 23.8069 16.3593 23.8161 16.4406 23.8422C18.7603 24.5526 21.2396 24.5526 23.5594 23.8422C23.6406 23.8162 23.7262 23.8071 23.8111 23.8155C23.896 23.8239 23.9782 23.8495 24.0528 23.8909C24.1273 23.9322 24.1927 23.9884 24.2447 24.0559C24.2968 24.1234 24.3344 24.2009 24.3554 24.2836C24.3919 24.4417 24.3669 24.6078 24.2856 24.7482C24.2042 24.8886 24.0725 24.9928 23.9172 25.0398C23.1885 25.2702 22.4399 25.4324 21.6812 25.5242C21.6345 25.5299 21.5896 25.5461 21.55 25.5716C21.5104 25.5971 21.477 25.6312 21.4525 25.6714C21.4279 25.7116 21.4127 25.7568 21.4081 25.8037C21.4035 25.8506 21.4095 25.8979 21.4258 25.9422L21.6984 26.6804C21.759 26.8417 21.8518 26.9888 21.9713 27.1128C22.0907 27.2369 22.2343 27.3352 22.3931 27.4018C22.5519 27.4683 22.7227 27.5018 22.8949 27.5C23.0671 27.4982 23.2371 27.4612 23.3945 27.3914L28.6289 25.0703C28.8989 24.952 29.1183 24.7418 29.2479 24.477C29.3775 24.2122 29.409 23.91 29.3367 23.6242ZM17.1875 21.875C17.0021 21.875 16.8208 21.82 16.6666 21.717C16.5125 21.614 16.3923 21.4675 16.3213 21.2962C16.2504 21.1249 16.2318 20.9364 16.268 20.7546C16.3042 20.5727 16.3935 20.4057 16.5246 20.2746C16.6557 20.1434 16.8227 20.0542 17.0046 20.018C17.1864 19.9818 17.3749 20.0004 17.5462 20.0713C17.7175 20.1423 17.864 20.2625 17.967 20.4166C18.07 20.5708 18.125 20.752 18.125 20.9375C18.125 21.1861 18.0262 21.4246 17.8504 21.6004C17.6746 21.7762 17.4361 21.875 17.1875 21.875ZM22.8125 21.875C22.6271 21.875 22.4458 21.82 22.2916 21.717C22.1375 21.614 22.0173 21.4675 21.9463 21.2962C21.8754 21.1249 21.8568 20.9364 21.893 20.7546C21.9292 20.5727 22.0185 20.4057 22.1496 20.2746C22.2807 20.1434 22.4477 20.0542 22.6296 20.018C22.8114 19.9818 22.9999 20.0004 23.1712 20.0713C23.3425 20.1423 23.489 20.2625 23.592 20.4166C23.695 20.5708 23.75 20.752 23.75 20.9375C23.75 21.1861 23.6512 21.4246 23.4754 21.6004C23.2996 21.7762 23.0611 21.875 22.8125 21.875Z" fill="#EDEDED"/>
</svg>
