<svg width="40" height="40" viewBox="0 0 40 40" fill="none" xmlns="http://www.w3.org/2000/svg">
<path d="M26.875 11.875H13.125C12.7935 11.875 12.4755 12.0067 12.2411 12.2411C12.0067 12.4755 11.875 12.7935 11.875 13.125V26.875C11.875 27.2065 12.0067 27.5245 12.2411 27.7589C12.4755 27.9933 12.7935 28.125 13.125 28.125H26.875C27.2065 28.125 27.5245 27.9933 27.7589 27.7589C27.9933 27.5245 28.125 27.2065 28.125 26.875V13.125C28.125 12.7935 27.9933 12.4755 27.7589 12.2411C27.5245 12.0067 27.2065 11.875 26.875 11.875ZM17.5 23.75C17.5 23.9158 17.4342 24.0747 17.3169 24.1919C17.1997 24.3092 17.0408 24.375 16.875 24.375C16.7092 24.375 16.5503 24.3092 16.4331 24.1919C16.3158 24.0747 16.25 23.9158 16.25 23.75V18.75C16.25 18.5842 16.3158 18.4253 16.4331 18.3081C16.5503 18.1908 16.7092 18.125 16.875 18.125C17.0408 18.125 17.1997 18.1908 17.3169 18.3081C17.4342 18.4253 17.5 18.5842 17.5 18.75V23.75ZM16.875 17.5C16.6896 17.5 16.5083 17.445 16.3542 17.342C16.2 17.239 16.0798 17.0926 16.0089 16.9213C15.9379 16.75 15.9193 16.5615 15.9555 16.3796C15.9917 16.1977 16.081 16.0307 16.2121 15.8996C16.3432 15.7685 16.5102 15.6792 16.6921 15.643C16.874 15.6068 17.0625 15.6254 17.2338 15.6964C17.4051 15.7673 17.5515 15.8875 17.6545 16.0417C17.7575 16.1958 17.8125 16.3771 17.8125 16.5625C17.8125 16.8111 17.7137 17.0496 17.5379 17.2254C17.3621 17.4012 17.1236 17.5 16.875 17.5ZM24.375 23.75C24.375 23.9158 24.3092 24.0747 24.1919 24.1919C24.0747 24.3092 23.9158 24.375 23.75 24.375C23.5842 24.375 23.4253 24.3092 23.3081 24.1919C23.1908 24.0747 23.125 23.9158 23.125 23.75V20.9375C23.125 20.5231 22.9604 20.1257 22.6674 19.8326C22.3743 19.5396 21.9769 19.375 21.5625 19.375C21.1481 19.375 20.7507 19.5396 20.4576 19.8326C20.1646 20.1257 20 20.5231 20 20.9375V23.75C20 23.9158 19.9342 24.0747 19.8169 24.1919C19.6997 24.3092 19.5408 24.375 19.375 24.375C19.2092 24.375 19.0503 24.3092 18.9331 24.1919C18.8158 24.0747 18.75 23.9158 18.75 23.75V18.75C18.7508 18.5969 18.8077 18.4494 18.91 18.3355C19.0123 18.2216 19.1529 18.1492 19.305 18.1321C19.4571 18.115 19.6102 18.1542 19.7353 18.2425C19.8604 18.3308 19.9488 18.4619 19.9836 18.6109C20.4064 18.3241 20.8993 18.1579 21.4095 18.1301C21.9196 18.1023 22.4277 18.214 22.8792 18.4532C23.3306 18.6924 23.7084 19.05 23.972 19.4877C24.2355 19.9254 24.3748 20.4266 24.375 20.9375V23.75Z" fill="#EDEDED"/>
</svg>
