<svg width="73" height="73" viewBox="0 0 73 73" fill="none" xmlns="http://www.w3.org/2000/svg">
<g clip-path="url(#clip0_2461_298483)">
<rect width="73" height="73" fill="#0F0F0F"/>
<line x1="12" y1="0.5" x2="61" y2="0.499996" stroke="#2E2E2E"/>
<line x1="12" y1="72.5" x2="61" y2="72.5" stroke="#2E2E2E"/>
<line x1="0.5" y1="12" x2="0.500002" y2="61" stroke="#2E2E2E"/>
<line x1="72.5" y1="12" x2="72.5" y2="61" stroke="#2E2E2E"/>
<rect width="4" height="4" fill="#707070"/>
<rect y="69" width="4" height="4" fill="#707070"/>
<rect x="69" y="69" width="4" height="4" fill="#707070"/>
<rect x="69" width="4" height="4" fill="#707070"/>
<path d="M51.8377 44.2878L46.7201 49.6316C46.6094 49.7476 46.4754 49.8403 46.3263 49.9036C46.1773 49.967 46.0164 49.9999 45.8537 50H21.5946C21.4789 49.9999 21.3657 49.967 21.2689 49.9053C21.1721 49.8435 21.0959 49.7557 21.0497 49.6524C21.0034 49.5491 20.989 49.4349 21.0084 49.3239C21.0277 49.2128 21.0799 49.1095 21.1585 49.0269L26.2703 43.6832C26.3809 43.5671 26.515 43.4745 26.6641 43.4111C26.8131 43.3477 26.974 43.3149 27.1367 43.3147H51.3958C51.5125 43.3124 51.6274 43.3437 51.7259 43.4048C51.8244 43.4659 51.9023 43.554 51.9494 43.658C51.9968 43.762 52.0112 43.8773 51.9913 43.9894C51.9714 44.1015 51.9179 44.2053 51.8377 44.2878ZM46.7201 33.5244C46.609 33.4089 46.4749 33.3167 46.3259 33.2533C46.177 33.19 46.0163 33.1568 45.8537 33.156H21.5946C21.4789 33.1561 21.3657 33.189 21.2689 33.2508C21.1721 33.3125 21.0959 33.4004 21.0497 33.5037C21.0034 33.6069 20.989 33.7211 21.0084 33.8322C21.0277 33.9433 21.0799 34.0465 21.1585 34.1292L26.2703 39.4757C26.3814 39.5912 26.5155 39.6835 26.6645 39.7468C26.8134 39.8102 26.9741 39.8433 27.1367 39.8441H51.3958C51.5113 39.8435 51.6239 39.8102 51.7204 39.7483C51.8169 39.6863 51.8925 39.5984 51.9384 39.4952C51.9844 39.3921 51.9985 39.2781 51.9789 39.1672C51.9595 39.0564 51.9075 38.9535 51.829 38.871L46.7201 33.5244ZM21.5946 29.6854H45.8537C46.0164 29.6853 46.1773 29.6524 46.3263 29.589C46.4754 29.5257 46.6094 29.433 46.7201 29.317L51.8377 23.9732C51.9179 23.8907 51.9714 23.7869 51.9913 23.6748C52.0112 23.5627 51.9968 23.4474 51.9494 23.3434C51.9023 23.2394 51.8244 23.1513 51.7259 23.0902C51.6274 23.0291 51.5125 22.9978 51.3958 23.0001H27.1367C26.974 23.0003 26.8131 23.0331 26.6641 23.0965C26.515 23.1599 26.3809 23.2525 26.2703 23.3686L21.1585 28.7123C21.0799 28.7949 21.0277 28.8982 21.0084 29.0092C20.989 29.1203 21.0034 29.2345 21.0497 29.3378C21.0959 29.441 21.1721 29.5289 21.2689 29.5907C21.3657 29.6524 21.4789 29.6853 21.5946 29.6854Z" fill="#505050"/>
</g>
<defs>
<clipPath id="clip0_2461_298483">
<rect width="73" height="73" fill="white"/>
</clipPath>
</defs>
</svg>
